<svg xmlns="http://www.w3.org/2000/svg" viewBox="0 0 512 512" id="footprint">
  <path d="M379.447 337.953c1.745 2.53 3.391 5.077 4.895 7.572a23.652 23.652 0 0 0 14.9 10.885 23.978 23.978 0 0 0 5.541.654A23.584 23.584 0 0 0 417.39 353.4a5.543 5.543 0 0 0 .972-.775l1.881-1.881a26.232 26.232 0 0 0 6.078-27.627c-1.327-3.564-2.719-7.136-4.134-10.618a16.058 16.058 0 0 0-24.12-7.086h0l-14.642 10.307A16.1 16.1 0 0 0 379.447 337.953zm10.4-13.116l14.641-10.307a4.908 4.908 0 0 1 7.374 2.169c1.373 3.379 2.724 6.848 4.014 10.309a15.054 15.054 0 0 1-3.513 15.848l-1.4 1.4a12.634 12.634 0 0 1-17.067-4.487c-1.62-2.688-3.392-5.429-5.265-8.147A4.91 4.91 0 0 1 389.843 324.837zM332.535 290.232a189.073 189.073 0 0 1 16.186 12.36 20.522 20.522 0 0 0 24.992 1.231l18.4-12.754a5.576 5.576 0 1 0-6.354-9.164l-18.394 12.753a9.361 9.361 0 0 1-11.4-.548 200.3 200.3 0 0 0-17.226-13.146c-.191-.126-19.112-12.735-27.851-35.364a20.842 20.842 0 0 1 8.611-25.051 21.716 21.716 0 0 1 22.544.2c9.776 5.9 24.691 17.515 40.227 39.381a5.576 5.576 0 0 0 9.09-6.459c-16.646-23.43-32.875-36.029-43.559-42.471-10.641-6.418-24.072-6.46-34.22-.1a32.007 32.007 0 0 0-13.1 38.52C310.5 275.551 331.718 289.7 332.535 290.232zM363.375 477.457c3.395 1.581 6.893 3.146 10.4 4.655a25.891 25.891 0 0 0 10.237 2.1 26.322 26.322 0 0 0 17.656-6.8l1.973-1.786a5.491 5.491 0 0 0 .823-.933 23.782 23.782 0 0 0-6.229-33.4c-2.419-1.627-4.882-3.4-7.32-5.264a16.1 16.1 0 0 0-22.405 2.871l-11.019 14.116a16.059 16.059 0 0 0 5.886 24.441zm2.9-17.579L377.3 445.762a4.912 4.912 0 0 1 6.836-.878c2.619 2 5.268 3.909 7.876 5.663a12.63 12.63 0 0 1 3.637 17.268l-1.466 1.328a15.062 15.062 0 0 1-16 2.725c-3.4-1.465-6.8-2.986-10.095-4.519a4.907 4.907 0 0 1-1.8-7.471zM315.226 450.533a20.534 20.534 0 0 0 28.234-4.177l13.648-17.743a20.516 20.516 0 0 0 .007-25.022A189.312 189.312 0 0 1 345.623 386.9 93.148 93.148 0 0 0 322.4 362.061a5.576 5.576 0 0 0-6.64 8.96 83.289 83.289 0 0 1 20.294 21.61A200.332 200.332 0 0 0 348.286 410.4a9.358 9.358 0 0 1-.017 11.412L334.62 439.558a9.408 9.408 0 0 1-12.945 1.879c-26.528-18.809-39.64-36.8-45.969-48.57a21.724 21.724 0 0 1 .912-22.526 5.576 5.576 0 1 0-9.147-6.379c-6.847 9.82-7.471 23.238-1.587 34.184C272.777 410.972 286.934 430.473 315.226 450.533z"></path>
  <path d="M294.891 361.274q.751.037 1.5.13a5.656 5.656 0 0 0 .7.044 5.576 5.576 0 0 0 .682-11.109c-.779-.1-1.557-.164-2.336-.2a5.576 5.576 0 0 0-.545 11.138zM205.61 137.145a5.576 5.576 0 0 0 6.419 9.119l14.645-10.307a4.9 4.9 0 0 1 7.371 2.171c1.372 3.37 2.722 6.837 4.015 10.306a15.055 15.055 0 0 1-3.513 15.849l-1.4 1.4A12.636 12.636 0 0 1 216.08 161.2a5.576 5.576 0 1 0-9.55 5.758 23.651 23.651 0 0 0 14.9 10.885 23.95 23.95 0 0 0 5.538.652 23.593 23.593 0 0 0 12.611-3.665 5.629 5.629 0 0 0 .971-.775l1.881-1.882a26.231 26.231 0 0 0 6.078-27.627c-1.331-3.572-2.722-7.145-4.135-10.616a16.059 16.059 0 0 0-24.12-7.087zM154.722 111.658a189.027 189.027 0 0 1 16.186 12.36 20.521 20.521 0 0 0 24.994 1.231L214.3 112.5A20.528 20.528 0 0 0 219.866 84.5c-18.634-29.246-37.411-44.351-49.882-51.873-10.642-6.419-24.076-6.459-34.22-.1a32.013 32.013 0 0 0-13.1 38.521C132.682 96.977 153.906 111.124 154.722 111.658zM141.683 41.976a20.5 20.5 0 0 1 10.9-3.054 22.611 22.611 0 0 1 11.641 3.256c11.448 6.906 28.764 20.893 46.235 48.316a9.409 9.409 0 0 1-2.518 12.838l-18.4 12.754a9.357 9.357 0 0 1-11.4-.549 200.115 200.115 0 0 0-17.226-13.147c-.19-.125-19.113-12.735-27.852-35.362A20.845 20.845 0 0 1 141.683 41.976zM220.421 262.72c-2.431-1.636-4.893-3.407-7.32-5.263a16.1 16.1 0 0 0-22.4 2.87l-11.019 14.116a16.058 16.058 0 0 0 5.885 24.44c3.358 1.565 6.856 3.131 10.4 4.655a25.893 25.893 0 0 0 10.237 2.1 26.322 26.322 0 0 0 17.656-6.8l1.973-1.786a5.53 5.53 0 0 0 .823-.933 23.783 23.783 0 0 0-6.229-33.4zm-2.585 26.521l-1.466 1.329a15.057 15.057 0 0 1-16 2.724c-3.441-1.48-6.837-3-10.094-4.518a4.907 4.907 0 0 1-1.8-7.471l11.018-14.116a4.911 4.911 0 0 1 6.837-.878c2.606 2 5.255 3.9 7.875 5.662a12.636 12.636 0 0 1 3.638 17.268zM137.414 271.96a20.534 20.534 0 0 0 28.234-4.177L179.3 250.04h0a20.522 20.522 0 0 0 .006-25.023 188.512 188.512 0 0 1-11.493-16.691c-.545-.927-13.623-22.824-39.029-34.11a32.013 32.013 0 0 0-39.122 11.174c-6.848 9.82-7.472 23.238-1.587 34.183C94.967 232.4 109.123 251.9 137.414 271.96zM98.807 191.768a21.117 21.117 0 0 1 17.265-9.093 20.113 20.113 0 0 1 8.181 1.731c22.033 9.788 33.831 29.38 33.993 29.652a199.9 199.9 0 0 0 12.228 17.77 9.36 9.36 0 0 1-.016 11.413l-13.65 17.743a9.4 9.4 0 0 1-12.945 1.879c-26.526-18.808-39.639-36.794-45.968-48.57A21.713 21.713 0 0 1 98.807 191.768z"></path>
</svg>
